<svg width="23" height="21" viewBox="0 0 23 21" fill="none" xmlns="http://www.w3.org/2000/svg">
<path d="M0 0V18H4V16H6V18H12V17.8281L11.5859 17.4141L10.1719 16L11.5859 14.5859L12 14.1719V12V10H14H16.1719L16.5859 9.58594L18 8.17188L19.4141 9.58594L19.8281 10H22V2H12.6172L11.6172 0H0ZM13 5H18V7H13V5ZM5.91211 5.00195C7.47912 4.94095 8.57733 6.52633 7.67383 8.22852C7.57483 8.41452 7.41452 8.57583 7.22852 8.67383C5.13452 9.78583 3.21417 7.86648 4.32617 5.77148C4.42517 5.58548 4.58548 5.42417 4.77148 5.32617C5.1643 5.11786 5.55049 5.01603 5.91211 5.00195ZM6 10C8.185 10 10 10.9088 10 12.2168V13H2V12.2168C2 10.9088 3.815 10 6 10ZM18 11L17 12H14V15L13 16L14 17V20H17L18 21L19 20H22V17L23 16L22 15V12H19L18 11Z" fill="#55FFFF"/>
</svg>
