<svg width="26" height="24" viewBox="0 0 26 24" fill="none" xmlns="http://www.w3.org/2000/svg">
<path d="M20 0.03125C19.4492 0.03125 19 0.480469 19 1.03125V5.8125L13.7188 0.53125C13.3281 0.140625 12.6719 0.140625 12.2812 0.53125L0.5625 12.2812C0.171875 12.6719 0.171875 13.2969 0.5625 13.6875C0.953125 14.0781 1.57812 14.0781 1.96875 13.6875L13 2.65625L24.0625 13.7188C24.2578 13.9141 24.5234 14.0312 24.7812 14.0312C25.0391 14.0312 25.2734 13.9141 25.4688 13.7188C25.8594 13.3281 25.8594 12.7031 25.4688 12.3125L22 8.84375V1.03125C22 0.480469 21.5508 0.03125 21 0.03125H20ZM13 4.5L2 15.5V21C2 22.6562 3.34375 24 5 24H21C22.6562 24 24 22.6562 24 21V15.5L13 4.5ZM11 14H15C15.5508 14 16 14.4492 16 15V21C16 21.5508 15.5508 22 15 22H11C10.4492 22 10 21.5508 10 21V15C10 14.4492 10.4492 14 11 14Z" fill="#55FFFF"/>
</svg>
