<svg width="24" height="24" viewBox="0 0 24 24" fill="none" xmlns="http://www.w3.org/2000/svg">
<path d="M18.0313 0C16.8868 0 16.9063 0.09375 16.9063 0.09375C16.7696 0.753906 16.6289 1.23047 16.5313 1.5C15.9493 1.69141 15.3985 1.98828 14.9375 2.375C14.6602 2.32031 14.211 2.1875 13.5938 1.96875C13.5938 1.96875 13.5274 1.91016 12.9375 2.90625C12.3477 3.89844 12.4375 3.9375 12.4375 3.9375C12.8946 4.36719 13.1914 4.71484 13.375 4.9375C13.2969 5.28125 13.25 5.63281 13.25 6C13.25 6.33203 13.2774 6.65625 13.3438 6.96875C13.1563 7.1875 12.8711 7.52344 12.4063 7.9375C12.4063 7.9375 12.3047 7.96094 12.875 8.96875C13.4414 9.97656 13.5313 9.9375 13.5313 9.9375C14.1563 9.73047 14.5977 9.60938 14.875 9.5625C15.3321 9.96484 15.8789 10.2969 16.4688 10.5C16.5664 10.7656 16.7032 11.2227 16.8438 11.9062C16.8438 11.9062 16.8243 12 17.9688 12C19.1094 12 19.0938 11.9062 19.0938 11.9062C19.2305 11.2461 19.3711 10.7695 19.4688 10.5C20.0508 10.3086 20.6016 10.0117 21.0625 9.625C21.3399 9.67969 21.7891 9.8125 22.4063 10.0312C22.4063 10.0312 22.4727 10.0859 23.0625 9.09375C23.6524 8.09766 23.5625 8.0625 23.5625 8.0625C23.1055 7.63281 22.8086 7.28516 22.625 7.0625C22.7032 6.72266 22.75 6.36719 22.75 6C22.75 5.66797 22.7227 5.34375 22.6563 5.03125C22.8438 4.8125 23.1328 4.47656 23.5938 4.0625C23.5938 4.0625 23.6953 4.03906 23.125 3.03125C22.5586 2.02344 22.4688 2.0625 22.4688 2.0625C21.8438 2.26953 21.4024 2.38672 21.125 2.4375C20.668 2.03516 20.1211 1.70312 19.5313 1.5C19.4336 1.23438 19.2969 0.777344 19.1563 0.09375C19.1563 0.09375 19.1719 0 18.0313 0ZM18 2C20.211 2 22 3.78906 22 6C22 8.21094 20.211 10 18 10C15.7891 10 14 8.21094 14 6C14 3.78906 15.7891 2 18 2ZM18 3C16.3438 3 15 4.34375 15 6C15 7.65625 16.3438 9 18 9C19.6563 9 21 7.65625 21 6C21 4.34375 19.6563 3 18 3ZM18 4.5C18.8282 4.5 19.5 5.17188 19.5 6C19.5 6.82812 18.8282 7.5 18 7.5C17.1719 7.5 16.5 6.82812 16.5 6C16.5 5.17188 17.1719 4.5 18 4.5ZM8.03129 8C6.50785 8 6.53129 8.15625 6.53129 8.15625C6.3516 9.03516 6.16019 9.61328 6.03129 9.96875C5.25394 10.2227 4.55082 10.6406 3.93754 11.1562C3.56644 11.082 2.94925 10.918 2.12504 10.625C2.12504 10.625 2.03519 10.5508 1.25004 11.875C0.464879 13.1992 0.593785 13.25 0.593785 13.25C1.20316 13.8203 1.6016 14.2969 1.84379 14.5938C1.73832 15.0508 1.65629 15.5117 1.65629 16C1.65629 16.4414 1.7266 16.8672 1.81254 17.2812C1.56254 17.5742 1.14847 18.0078 0.531285 18.5625C0.531285 18.5625 0.398473 18.625 1.15629 19.9688C1.9141 21.3086 2.03129 21.2188 2.03129 21.2188C2.86722 20.9414 3.47269 20.8164 3.84379 20.75C4.45316 21.2852 5.15238 21.6992 5.93754 21.9688C6.06644 22.3203 6.28129 22.9336 6.46879 23.8438C6.46879 23.8438 6.44535 24 7.96879 24C9.49222 24 9.46879 23.8438 9.46879 23.8438C9.64847 22.9648 9.83988 22.3867 9.96879 22.0312C10.7461 21.7773 11.4493 21.3594 12.0625 20.8438C12.4336 20.918 13.0508 21.082 13.875 21.375C13.875 21.375 13.9649 21.4492 14.75 20.125C15.5352 18.8008 15.4063 18.75 15.4063 18.75C14.7969 18.1797 14.3985 17.707 14.1563 17.4062C14.2618 16.9492 14.3438 16.4883 14.3438 16C14.3438 15.5586 14.2735 15.1328 14.1875 14.7188C14.4336 14.4258 14.8516 13.9922 15.4688 13.4375C15.4688 13.4375 15.6016 13.3711 14.8438 12.0312C14.086 10.6875 13.9688 10.7812 13.9688 10.7812C13.1328 11.0547 12.5274 11.1836 12.1563 11.25C11.5469 10.7148 10.8477 10.3008 10.0625 10.0312C9.93363 9.67969 9.75004 9.06641 9.56254 8.15625C9.56254 8.15625 9.55472 8 8.03129 8ZM8.00004 11C10.7618 11 13 13.2383 13 16C13 18.7617 10.7618 21 8.00004 21C5.23832 21 3.00004 18.7617 3.00004 16C3.00004 13.2383 5.23832 11 8.00004 11ZM8.00004 12C5.7891 12 4.00004 13.7891 4.00004 16C4.00004 18.2109 5.7891 20 8.00004 20C10.211 20 12 18.2109 12 16C12 13.7891 10.211 12 8.00004 12ZM8.00004 14C9.1055 14 10 14.8945 10 16C10 17.1055 9.1055 18 8.00004 18C6.89457 18 6.00004 17.1055 6.00004 16C6.00004 14.8945 6.89457 14 8.00004 14Z" fill="#55FFFF"/>
</svg>
